# xmcd CD database file
#
# Track frame offsets:
#	183
#	31088
#	57650
#	80923
#	104688
#	139670
#	161195
#	188963
#	209365
#	227395
#	251825
#	274663
#
# Disc length: 4029 seconds
#
# Revision: 0
# Processed by: cddbd v1.4PL0 Copyright (c) Steve Scherf et al.
# Submitted via: CDex 1.40Beta5
#
DISCID=b10fbb0c
DTITLE=Radoslav Lorkovic - The Line
DYEAR=1992
DGENRE=Blues
TTITLE0=The Line
TTITLE1=Boogie Woogie
TTITLE2=Rum and Coke
TTITLE3=Can't Spend What You Ain't Got
TTITLE4=Variations on a Theme by BB King
TTITLE5=One Big Town
TTITLE6=Duty Free Dubrovnik
TTITLE7=Maybe Tomorrow
TTITLE8=Tipatina
TTITLE9=Eight to the Bar
TTITLE10=Mess Around
TTITLE11=Freedom's Deadly Guns
EXTD=YEAR: 1992 ID3G:   0
EXTT0=
EXTT1=
EXTT2=
EXTT3=
EXTT4=
EXTT5=
EXTT6=
EXTT7=
EXTT8=
EXTT9=
EXTT10=
EXTT11=
PLAYORDER=
